<svg width="96" height="96" viewBox="0 0 96 96" fill="none" xmlns="http://www.w3.org/2000/svg">
<path d="M68.3162 44.7568C67.7176 43.3668 66.6701 41.668 64.5751 40.278C63.378 39.5058 58.7391 38.8881 58.5895 43.2124C58.5895 43.2124 56.6441 43.5213 56.7938 44.9112C56.7938 44.9112 55.5966 49.0811 61.283 48.6178C61.283 48.6178 62.3305 56.4942 63.2283 58.1931C63.2283 58.1931 63.6773 59.7375 63.8269 61.2819H66.2212L66.3708 58.1931C66.3708 58.1931 67.7176 59.1197 68.7651 61.2819H72.2068C72.0572 60.0464 71.9076 58.9653 71.6083 58.1931C71.6083 58.1931 76.6961 58.1931 78.4918 55.8765C78.4918 55.8765 79.9882 58.8109 81.7839 58.9653V61.4363H84.1782C84.3278 60.973 84.3278 60.5097 84.4774 59.7375C84.4774 59.7375 85.3753 60.2008 85.8242 61.4363H87.9192C87.6199 60.3553 84.9264 50.3166 84.0285 49.5444C84.0285 49.5444 85.3753 49.39 85.8242 51.0888C85.8242 51.0888 86.5724 54.641 88.0688 54.4865C88.0688 54.4865 89.1163 52.1699 87.3206 49.2356C87.3206 49.2356 86.5724 47.0734 82.6817 47.3823L71.4586 47.0734C69.9622 46.7645 68.9147 45.8379 68.3162 44.7568Z" fill="#181817"/>
<path d="M54.6989 32.8647C55.5967 31.6292 55.4471 29.7759 54.2499 28.6948C53.0528 27.7682 51.2571 27.9226 50.2096 29.1581C47.3664 32.8647 42.2786 33.4824 38.6872 31.938L36.7419 37.4979C42.8772 39.9689 50.3593 38.7334 54.6989 32.8647Z" fill="#181817"/>
<path d="M29.2598 23.1351C33.3094 23.1351 36.5922 19.747 36.5922 15.5676C36.5922 11.3881 33.3094 8 29.2598 8C25.2102 8 21.9273 11.3881 21.9273 15.5676C21.9273 19.747 25.2102 23.1351 29.2598 23.1351Z" fill="#181817"/>
<path d="M33.5994 62.9806L27.3144 60.3552L31.0555 49.3899C22.6755 44.6023 19.6827 37.0347 19.533 36.5714C18.6352 34.2548 19.6827 31.7837 21.9273 30.8571C24.1719 29.9304 26.5662 31.0115 27.4641 33.3281C27.6137 33.637 29.4094 37.6525 34.0483 40.8957L36.8915 32.8648C37.1908 31.9382 37.0411 31.0115 36.4425 30.2393C31.0555 24.0617 24.7705 21.7451 17.887 23.9073C15.9417 24.525 14.5949 26.0694 14.146 28.0772L8.16029 60.2007C8.16029 60.3552 8.16029 60.3552 8.16029 60.5096C8.16029 60.664 8.16029 60.9729 8.16029 61.1274L8.45957 75.7992L5.16746 75.027C2.92283 74.5637 0.528568 76.1081 0.0796431 78.4247C-0.369282 80.7413 1.12713 83.2123 3.37176 83.6756L11.9013 85.5289C13.2481 85.8378 14.4452 85.5289 15.4927 84.6023C16.5402 83.6756 17.1388 82.4401 16.9891 81.0501L16.6899 65.6061L27.6137 70.0849V83.5212C27.6137 85.9922 29.559 88 31.9533 88C34.3476 88 36.2929 85.9922 36.2929 83.5212V67.1505C36.4425 65.2972 35.2454 63.7528 33.5994 62.9806Z" fill="#181817"/>
<path d="M45.1217 46.1467C30.9058 45.0656 26.4165 34.4093 26.2669 33.9459C25.6683 32.4015 24.0223 31.7838 22.5259 32.4015C21.0295 33.0193 20.4309 34.7181 21.0295 36.2625C21.3287 36.8803 27.0151 50.7799 44.8225 52.1699C46.4685 52.3243 47.8153 51.0888 47.8153 49.39C47.8153 47.6911 46.7678 46.3011 45.1217 46.1467Z" fill="#181817"/>
<path d="M70.7104 26.0695C67.7176 26.6873 65.473 29.4672 65.473 32.7104H78.7911C78.7911 29.1583 76.2472 26.3784 72.955 25.9151C68.4658 20.8185 61.283 22.8263 55.5966 27.9228C55.8959 28.2317 56.1952 28.695 56.4945 29.1583C60.5348 25.2973 66.0715 22.6718 70.7104 26.0695Z" fill="#181817"/>
<path d="M93.4561 62.6718H51.4068C50.2097 62.6718 49.1622 63.7529 49.1622 64.9884C49.1622 66.2239 50.2097 67.305 51.4068 67.305H51.8557V71.166C51.8557 77.1892 56.6442 82.1313 62.4803 82.1313H82.6819C88.5179 82.1313 93.3064 77.1892 93.3064 71.166V67.305H93.7554C94.9525 67.305 96 66.2239 96 64.9884C95.7007 63.5984 94.6532 62.6718 93.4561 62.6718Z" fill="#181817"/>
<path d="M66.6701 35.7992L66.8197 34.4092C66.8197 33.9459 66.6701 33.637 66.2212 33.637C65.7723 33.637 65.473 33.7915 65.473 34.2548L65.3233 35.6448C65.3233 36.1081 65.473 36.417 65.9219 36.417C66.2212 36.417 66.5205 36.1081 66.6701 35.7992Z" fill="#181817"/>
<path d="M64.8744 37.6525L64.7248 39.0425C64.7248 39.5058 64.8744 39.8147 65.3234 39.8147C65.7723 39.8147 66.0716 39.6602 66.0716 39.1969L66.2212 37.807C66.2212 37.3436 66.0716 37.0348 65.6226 37.0348C65.3234 37.0348 65.0241 37.3436 64.8744 37.6525Z" fill="#181817"/>
<path d="M69.9621 36.417C70.411 36.417 70.7103 36.1081 70.7103 35.6448V34.1003C70.7103 33.637 70.411 33.3281 69.9621 33.3281C69.5132 33.3281 69.2139 33.637 69.2139 34.1003V35.6448C69.2139 35.9536 69.6628 36.417 69.9621 36.417Z" fill="#181817"/>
<path d="M69.0644 39.1968C69.0644 39.6601 69.3636 39.969 69.8126 39.969C70.2615 39.969 70.5608 39.6601 70.5608 39.1968V37.6524C70.5608 37.1891 70.2615 36.8802 69.8126 36.8802C69.3636 36.8802 69.0644 37.1891 69.0644 37.6524V39.1968Z" fill="#181817"/>
<path d="M74.0026 33.4827C73.5537 33.4827 73.2544 33.7916 73.2544 34.2549V35.7993C73.2544 36.2626 73.5537 36.5715 74.0026 36.5715C74.4515 36.5715 74.7508 36.2626 74.7508 35.7993V34.2549C74.7508 33.7916 74.4515 33.4827 74.0026 33.4827Z" fill="#181817"/>
<path d="M73.5537 37.807V39.3514C73.5537 39.8147 73.853 40.1236 74.3019 40.1236C74.7509 40.1236 75.0501 39.8147 75.0501 39.3514V37.807C75.0501 37.3436 74.7509 37.0348 74.3019 37.0348C73.7034 37.0348 73.4041 37.3436 73.5537 37.807Z" fill="#181817"/>
<path d="M77.8932 33.4827C77.4443 33.4827 77.2946 33.946 77.2946 34.2549L77.4443 35.6448C77.4443 35.9537 77.7435 36.2626 78.1925 36.2626C78.6414 36.2626 78.9407 35.7993 78.9407 35.3359L78.6414 34.1004C78.6414 33.6371 78.1925 33.3282 77.8932 33.4827Z" fill="#181817"/>
<path d="M77.7438 37.9614L77.8934 39.3514C77.8934 39.6602 78.3423 39.9691 78.6416 39.9691C79.0905 39.9691 79.3898 39.5058 79.2402 39.1969V37.6525C79.2402 37.1892 78.7913 37.0348 78.492 37.0348C78.0431 37.1892 77.7438 37.4981 77.7438 37.9614Z" fill="#181817"/>
</svg>
