<svg width="22" height="28" viewBox="0 0 22 28" fill="none" xmlns="http://www.w3.org/2000/svg">
<path d="M1.46671 27.3333V14.5333L1.10004 14.1666C0.855596 13.9222 0.666707 13.6333 0.533374 13.3C0.400041 12.9666 0.333374 12.6222 0.333374 12.2666C0.333374 11.9111 0.400041 11.5724 0.533374 11.2506C0.666707 10.928 0.855596 10.6444 1.10004 10.4L5.46671 5.99996H10.8L16.1334 0.666626L18.8667 3.39996C19.7556 4.28885 20.4445 5.29418 20.9334 6.41596C21.4223 7.53863 21.6667 8.73329 21.6667 9.99996C21.6667 11.2666 21.4223 12.4613 20.9334 13.584C20.4445 14.7057 19.7556 15.7111 18.8667 16.6L16.1334 19.3333V27.3333H1.46671ZM4.13337 24.6666H13.4667V18.2333L16.9667 14.7333C17.6112 14.0888 18.1112 13.3666 18.4667 12.5666C18.8223 11.7666 19 10.9111 19 9.99996C19 9.11107 18.8165 8.26663 18.4494 7.46663C18.0832 6.66663 17.5889 5.9444 16.9667 5.29996L16.1334 4.43329L11.9 8.66663H6.56671L5.80004 9.43329L8.03337 11.6666C8.65559 12.2888 9.13915 13.0053 9.48404 13.816C9.82804 14.6275 10 15.4777 10 16.3666C10 17.2555 9.83337 18.1057 9.50004 18.9173C9.16671 19.728 8.67782 20.4555 8.03337 21.1L4.13337 17.2V24.6666Z" fill="#FF9F0E"/>
</svg>
