<svg width="21" height="27" viewBox="0 0 21 27" fill="none" xmlns="http://www.w3.org/2000/svg">
<path d="M6.38379 6.71427C6.38379 5.58911 6.83001 4.51004 7.62428 3.71443C8.41856 2.91882 9.49582 2.47185 10.6191 2.47185C11.7424 2.47185 12.8196 2.91882 13.6139 3.71443C14.4082 4.51004 14.8544 5.58911 14.8544 6.71427C14.8544 7.83944 14.4082 8.91851 13.6139 9.71412C12.8196 10.5097 11.7424 10.9567 10.6191 10.9567C9.49582 10.9567 8.41856 10.5097 7.62428 9.71412C6.83001 8.91851 6.38379 7.83944 6.38379 6.71427ZM10.6191 0.0476074C8.85395 0.0476074 7.16111 0.749987 5.91297 2.00023C4.66482 3.25047 3.96363 4.94616 3.96363 6.71427C3.96363 8.48238 4.66482 10.1781 5.91297 11.4283C7.16111 12.6786 8.85395 13.3809 10.6191 13.3809C12.3842 13.3809 14.0771 12.6786 15.3252 11.4283C16.5734 10.1781 17.2745 8.48238 17.2745 6.71427C17.2745 4.94616 16.5734 3.25047 15.3252 2.00023C14.0771 0.749987 12.3842 0.0476074 10.6191 0.0476074ZM0.333374 19.4415C0.333374 18.4771 0.715846 17.5522 1.39665 16.8702C2.07745 16.1883 3.00082 15.8052 3.96363 15.8052H17.2745C18.2374 15.8052 19.1607 16.1883 19.8415 16.8702C20.5223 17.5522 20.9048 18.4771 20.9048 19.4415V19.7155C20.9024 19.8286 20.8944 19.9414 20.8806 20.0537C20.8564 20.2634 20.8116 20.5482 20.7233 20.8852C20.4908 21.7741 20.0794 22.6061 19.5144 23.33C18.0986 25.1506 15.4352 26.7143 10.6191 26.7143C5.80295 26.7143 3.14077 25.1506 1.72376 23.33C1.1583 22.6062 0.74651 21.7742 0.513676 20.8852C0.421248 20.5286 0.362103 20.1642 0.337004 19.7967C0.335834 19.7696 0.335028 19.7426 0.334584 19.7155V19.6876L0.333374 19.6779V19.4415ZM2.75354 19.6573V19.6719C2.77031 19.8757 2.80473 20.0776 2.8564 20.2755C2.96531 20.6973 3.18675 21.267 3.63206 21.8403C4.48517 22.9361 6.35959 24.29 10.6191 24.29C14.8786 24.29 16.7542 22.9361 17.6061 21.8415C17.9679 21.3777 18.2314 20.8448 18.3806 20.2755C18.4326 20.0777 18.4674 19.8757 18.4846 19.6719L18.4858 19.6573V19.4415C18.4858 19.1201 18.3584 18.8118 18.1314 18.5844C17.9045 18.3571 17.5967 18.2294 17.2758 18.2294H3.96363C3.64269 18.2294 3.3349 18.3571 3.10797 18.5844C2.88103 18.8118 2.75354 19.1201 2.75354 19.4415V19.6573Z" fill="#FF9F0E"/>
</svg>
