<svg width="28" height="28" viewBox="0 0 28 28" fill="none" xmlns="http://www.w3.org/2000/svg">
<path d="M14 27.3333C12.1777 27.3333 10.4555 26.9831 8.83329 26.2826C7.21107 25.5831 5.79463 24.6275 4.58396 23.416C3.3724 22.2053 2.41685 20.7888 1.71729 19.1666C1.01685 17.5444 0.666626 15.8222 0.666626 14C0.666626 12.1555 1.01685 10.428 1.71729 8.81729C2.41685 7.20574 3.3724 5.79463 4.58396 4.58396C5.79463 3.3724 7.21107 2.4164 8.83329 1.71596C10.4555 1.0164 12.1777 0.666626 14 0.666626C15.8444 0.666626 17.572 1.0164 19.1826 1.71596C20.7942 2.4164 22.2053 3.3724 23.416 4.58396C24.6275 5.79463 25.5831 7.20574 26.2826 8.81729C26.9831 10.428 27.3333 12.1555 27.3333 14V15.9333C27.3333 17.2444 26.8835 18.3608 25.984 19.2826C25.0835 20.2053 23.9777 20.6666 22.6666 20.6666C21.8666 20.6666 21.1222 20.4888 20.4333 20.1333C19.7444 19.7777 19.1777 19.3111 18.7333 18.7333C18.1333 19.3333 17.428 19.8057 16.6173 20.1506C15.8057 20.4946 14.9333 20.6666 14 20.6666C12.1555 20.6666 10.5835 20.0164 9.28396 18.716C7.98351 17.4164 7.33329 15.8444 7.33329 14C7.33329 12.1555 7.98351 10.5831 9.28396 9.28263C10.5835 7.98307 12.1555 7.33329 14 7.33329C15.8444 7.33329 17.4168 7.98307 18.7173 9.28263C20.0168 10.5831 20.6666 12.1555 20.6666 14V15.9333C20.6666 16.5777 20.8666 17.0831 21.2666 17.4493C21.6666 17.8164 22.1333 18 22.6666 18C23.2 18 23.6666 17.8164 24.0666 17.4493C24.4666 17.0831 24.6666 16.5777 24.6666 15.9333V14C24.6666 11.0888 23.6164 8.58307 21.516 6.48263C19.4164 4.38307 16.9111 3.33329 14 3.33329C11.0888 3.33329 8.58307 4.38307 6.48263 6.48263C4.38307 8.58307 3.33329 11.0888 3.33329 14C3.33329 16.9111 4.38307 19.4164 6.48263 21.516C8.58307 23.6164 11.0888 24.6666 14 24.6666H20.6666V27.3333H14ZM14 18C15.1111 18 16.0555 17.6111 16.8333 16.8333C17.6111 16.0555 18 15.1111 18 14C18 12.8888 17.6111 11.9444 16.8333 11.1666C16.0555 10.3888 15.1111 9.99996 14 9.99996C12.8888 9.99996 11.9444 10.3888 11.1666 11.1666C10.3888 11.9444 9.99996 12.8888 9.99996 14C9.99996 15.1111 10.3888 16.0555 11.1666 16.8333C11.9444 17.6111 12.8888 18 14 18Z" fill="#FF9F0E"/>
</svg>
