<svg width="40" height="40" viewBox="0 0 40 40" fill="none" xmlns="http://www.w3.org/2000/svg">
<path d="M1.87943 15.4999H38.1301V12.8333H1.87943V15.4999ZM37.3381 14.7079V15.8786H40.0048V14.7079H37.3381ZM33.0341 36.8333H6.97543V39.5H33.0341V36.8333ZM2.67143 15.8786V14.7079H0.00476074V15.8786H2.67143ZM7.72743 37.2973C4.40237 30.647 2.67134 23.3138 2.67143 15.8786H0.00476074C0.00476074 23.7293 1.83143 31.4706 5.34343 38.492L7.72743 37.2973ZM6.97543 36.8333C7.29543 36.8333 7.58609 37.0146 7.72743 37.2973L5.34343 38.492C5.49524 38.7948 5.72827 39.0494 6.01647 39.2274C6.30467 39.4054 6.63669 39.4998 6.97543 39.5V36.8333ZM32.2821 37.2973C32.352 37.1577 32.4593 37.0404 32.5922 36.9584C32.725 36.8765 32.878 36.8331 33.0341 36.8333V39.5C33.7274 39.5 34.3568 39.1106 34.6661 38.492L32.2821 37.2973ZM37.3381 15.8786C37.3381 23.3133 35.6048 30.6466 32.2821 37.2973L34.6661 38.492C38.177 31.4708 40.0048 23.7286 40.0048 15.8786H37.3381ZM38.1301 15.4999C37.92 15.4999 37.7186 15.4165 37.5701 15.268C37.4215 15.1194 37.3381 14.918 37.3381 14.7079H40.0048C40.0048 14.2108 39.8073 13.7339 39.4557 13.3824C39.1041 13.0308 38.6273 12.8333 38.1301 12.8333V15.4999ZM1.87943 12.8333C1.38223 12.8333 0.905406 13.0308 0.553838 13.3824C0.20227 13.7339 0.00476074 14.2108 0.00476074 14.7079H2.67143C2.67143 14.918 2.58798 15.1194 2.43946 15.268C2.29093 15.4165 2.08948 15.4999 1.87943 15.4999V12.8333ZM10.4821 14.8519L18.4821 1.51862L16.1914 0.147949L8.19143 13.4813L10.4821 14.8519ZM21.5274 1.51862L29.5274 14.8519L31.8154 13.4813L23.8154 0.147949L21.5274 1.51862ZM13.3381 26.1666H26.6714V23.5H13.3381V26.1666Z" fill="#FF9F0E"/>
</svg>
