<svg width="173" height="24" viewBox="0 0 173 24" fill="none" xmlns="http://www.w3.org/2000/svg">
<path d="M2.85645 10.3799V18H1.22168V8.49023H2.76855L2.85645 10.3799ZM2.52246 12.8848L1.7666 12.8584C1.77246 12.208 1.85742 11.6074 2.02148 11.0566C2.18555 10.5 2.42871 10.0166 2.75098 9.60645C3.07324 9.19629 3.47461 8.87988 3.95508 8.65723C4.43555 8.42871 4.99219 8.31445 5.625 8.31445C6.07031 8.31445 6.48047 8.37891 6.85547 8.50781C7.23047 8.63086 7.55566 8.82715 7.83105 9.09668C8.10645 9.36621 8.32031 9.71191 8.47266 10.1338C8.625 10.5557 8.70117 11.0654 8.70117 11.6631V18H7.0752V11.7422C7.0752 11.2441 6.99023 10.8457 6.82031 10.5469C6.65625 10.248 6.42188 10.0312 6.11719 9.89648C5.8125 9.75586 5.45508 9.68555 5.04492 9.68555C4.56445 9.68555 4.16309 9.77051 3.84082 9.94043C3.51855 10.1104 3.26074 10.3447 3.06738 10.6436C2.87402 10.9424 2.7334 11.2852 2.64551 11.6719C2.56348 12.0527 2.52246 12.457 2.52246 12.8848ZM8.68359 11.9883L7.59375 12.3223C7.59961 11.8008 7.68457 11.2998 7.84863 10.8193C8.01855 10.3389 8.26172 9.91113 8.57812 9.53613C8.90039 9.16113 9.2959 8.86523 9.76465 8.64844C10.2334 8.42578 10.7695 8.31445 11.373 8.31445C11.8828 8.31445 12.334 8.38184 12.7266 8.5166C13.125 8.65137 13.459 8.85938 13.7285 9.14062C14.0039 9.41602 14.2119 9.77051 14.3525 10.2041C14.4932 10.6377 14.5635 11.1533 14.5635 11.751V18H12.9287V11.7334C12.9287 11.2002 12.8438 10.7871 12.6738 10.4941C12.5098 10.1953 12.2754 9.9873 11.9707 9.87012C11.6719 9.74707 11.3145 9.68555 10.8984 9.68555C10.541 9.68555 10.2246 9.74707 9.94922 9.87012C9.67383 9.99316 9.44238 10.1631 9.25488 10.3799C9.06738 10.5908 8.92383 10.834 8.82422 11.1094C8.73047 11.3848 8.68359 11.6777 8.68359 11.9883ZM17.4937 13.3506V13.1484C17.4937 12.4629 17.5934 11.8271 17.7926 11.2412C17.9918 10.6494 18.2789 10.1367 18.6539 9.70312C19.0289 9.26367 19.483 8.92383 20.0162 8.68359C20.5494 8.4375 21.1471 8.31445 21.8092 8.31445C22.4771 8.31445 23.0777 8.4375 23.6109 8.68359C24.15 8.92383 24.607 9.26367 24.982 9.70312C25.3629 10.1367 25.6529 10.6494 25.8521 11.2412C26.0514 11.8271 26.151 12.4629 26.151 13.1484V13.3506C26.151 14.0361 26.0514 14.6719 25.8521 15.2578C25.6529 15.8438 25.3629 16.3564 24.982 16.7959C24.607 17.2295 24.1529 17.5693 23.6197 17.8154C23.0924 18.0557 22.4947 18.1758 21.8268 18.1758C21.1588 18.1758 20.5582 18.0557 20.025 17.8154C19.4918 17.5693 19.0348 17.2295 18.6539 16.7959C18.2789 16.3564 17.9918 15.8438 17.7926 15.2578C17.5934 14.6719 17.4937 14.0361 17.4937 13.3506ZM19.1197 13.1484V13.3506C19.1197 13.8252 19.1754 14.2734 19.2867 14.6953C19.398 15.1113 19.565 15.4805 19.7877 15.8027C20.0162 16.125 20.3004 16.3799 20.6402 16.5674C20.9801 16.749 21.3756 16.8398 21.8268 16.8398C22.2721 16.8398 22.6617 16.749 22.9957 16.5674C23.3355 16.3799 23.6168 16.125 23.8395 15.8027C24.0621 15.4805 24.2291 15.1113 24.3404 14.6953C24.4576 14.2734 24.5162 13.8252 24.5162 13.3506V13.1484C24.5162 12.6797 24.4576 12.2373 24.3404 11.8213C24.2291 11.3994 24.0592 11.0273 23.8307 10.7051C23.608 10.377 23.3268 10.1191 22.9869 9.93164C22.6529 9.74414 22.2604 9.65039 21.8092 9.65039C21.3639 9.65039 20.9713 9.74414 20.6314 9.93164C20.2975 10.1191 20.0162 10.377 19.7877 10.7051C19.565 11.0273 19.398 11.3994 19.2867 11.8213C19.1754 12.2373 19.1197 12.6797 19.1197 13.1484ZM30.716 9.98438V18H29.09V8.49023H30.6721L30.716 9.98438ZM33.6867 8.4375L33.6779 9.94922C33.5432 9.91992 33.4143 9.90234 33.2912 9.89648C33.174 9.88477 33.0393 9.87891 32.8869 9.87891C32.5119 9.87891 32.1809 9.9375 31.8937 10.0547C31.6066 10.1719 31.3635 10.3359 31.1643 10.5469C30.965 10.7578 30.8068 11.0098 30.6896 11.3027C30.5783 11.5898 30.5051 11.9062 30.4699 12.252L30.0129 12.5156C30.0129 11.9414 30.0686 11.4023 30.1799 10.8984C30.2971 10.3945 30.4758 9.94922 30.716 9.5625C30.9562 9.16992 31.2609 8.86523 31.6301 8.64844C32.0051 8.42578 32.4504 8.31445 32.966 8.31445C33.0832 8.31445 33.218 8.3291 33.3703 8.3584C33.5227 8.38184 33.6281 8.4082 33.6867 8.4375ZM39.8602 18.1758C39.198 18.1758 38.5975 18.0645 38.0584 17.8418C37.5252 17.6133 37.0652 17.2939 36.6785 16.8838C36.2977 16.4736 36.0047 15.9873 35.7996 15.4248C35.5945 14.8623 35.492 14.2471 35.492 13.5791V13.21C35.492 12.4365 35.6063 11.748 35.8348 11.1445C36.0633 10.5352 36.3738 10.0195 36.7664 9.59766C37.159 9.17578 37.6043 8.85645 38.1023 8.63965C38.6004 8.42285 39.116 8.31445 39.6492 8.31445C40.3289 8.31445 40.9148 8.43164 41.407 8.66602C41.9051 8.90039 42.3123 9.22852 42.6287 9.65039C42.9451 10.0664 43.1795 10.5586 43.3318 11.127C43.4842 11.6895 43.5604 12.3047 43.5604 12.9727V13.7021H36.4588V12.375H41.9344V12.252C41.9109 11.8301 41.823 11.4199 41.6707 11.0215C41.5242 10.623 41.2898 10.2949 40.9676 10.0371C40.6453 9.7793 40.2059 9.65039 39.6492 9.65039C39.2801 9.65039 38.9402 9.72949 38.6297 9.8877C38.3191 10.04 38.0525 10.2686 37.8299 10.5732C37.6072 10.8779 37.4344 11.25 37.3113 11.6895C37.1883 12.1289 37.1268 12.6357 37.1268 13.21V13.5791C37.1268 14.0303 37.1883 14.4551 37.3113 14.8535C37.4402 15.2461 37.6248 15.5918 37.865 15.8906C38.1111 16.1895 38.407 16.4238 38.7527 16.5938C39.1043 16.7637 39.5027 16.8486 39.948 16.8486C40.5223 16.8486 41.0086 16.7314 41.407 16.4971C41.8055 16.2627 42.1541 15.9492 42.4529 15.5566L43.4373 16.3389C43.2322 16.6494 42.9715 16.9453 42.6551 17.2266C42.3387 17.5078 41.949 17.7363 41.4861 17.9121C41.0291 18.0879 40.4871 18.1758 39.8602 18.1758ZM57.2607 15.4775C57.2607 15.2432 57.208 15.0264 57.1025 14.8271C57.0029 14.6221 56.7949 14.4375 56.4785 14.2734C56.168 14.1035 55.6992 13.957 55.0723 13.834C54.5449 13.7227 54.0674 13.5908 53.6396 13.4385C53.2178 13.2861 52.8574 13.1016 52.5586 12.8848C52.2656 12.668 52.04 12.4131 51.8818 12.1201C51.7236 11.8271 51.6445 11.4844 51.6445 11.0918C51.6445 10.7168 51.7266 10.3623 51.8906 10.0283C52.0605 9.69434 52.2979 9.39844 52.6025 9.14062C52.9131 8.88281 53.2852 8.68066 53.7188 8.53418C54.1523 8.3877 54.6357 8.31445 55.1689 8.31445C55.9307 8.31445 56.5811 8.44922 57.1201 8.71875C57.6592 8.98828 58.0723 9.34863 58.3594 9.7998C58.6465 10.2451 58.79 10.7402 58.79 11.2852H57.1641C57.1641 11.0215 57.085 10.7666 56.9268 10.5205C56.7744 10.2686 56.5488 10.0605 56.25 9.89648C55.957 9.73242 55.5967 9.65039 55.1689 9.65039C54.7178 9.65039 54.3516 9.7207 54.0703 9.86133C53.7949 9.99609 53.5928 10.1689 53.4639 10.3799C53.3408 10.5908 53.2793 10.8135 53.2793 11.0479C53.2793 11.2236 53.3086 11.3818 53.3672 11.5225C53.4316 11.6572 53.543 11.7832 53.7012 11.9004C53.8594 12.0117 54.082 12.1172 54.3691 12.2168C54.6562 12.3164 55.0225 12.416 55.4678 12.5156C56.2471 12.6914 56.8887 12.9023 57.3926 13.1484C57.8965 13.3945 58.2715 13.6963 58.5176 14.0537C58.7637 14.4111 58.8867 14.8447 58.8867 15.3545C58.8867 15.7705 58.7988 16.1514 58.623 16.4971C58.4531 16.8428 58.2041 17.1416 57.876 17.3936C57.5537 17.6396 57.167 17.833 56.7158 17.9736C56.2705 18.1084 55.7695 18.1758 55.2129 18.1758C54.375 18.1758 53.666 18.0264 53.0859 17.7275C52.5059 17.4287 52.0664 17.042 51.7676 16.5674C51.4688 16.0928 51.3193 15.5918 51.3193 15.0645H52.9541C52.9775 15.5098 53.1064 15.8643 53.3408 16.1279C53.5752 16.3857 53.8623 16.5703 54.2021 16.6816C54.542 16.7871 54.8789 16.8398 55.2129 16.8398C55.6582 16.8398 56.0303 16.7812 56.3291 16.6641C56.6338 16.5469 56.8652 16.3857 57.0234 16.1807C57.1816 15.9756 57.2607 15.7412 57.2607 15.4775ZM65.8688 18.1758C65.2066 18.1758 64.6061 18.0645 64.067 17.8418C63.5338 17.6133 63.0738 17.2939 62.6871 16.8838C62.3063 16.4736 62.0133 15.9873 61.8082 15.4248C61.6031 14.8623 61.5006 14.2471 61.5006 13.5791V13.21C61.5006 12.4365 61.6148 11.748 61.8434 11.1445C62.0719 10.5352 62.3824 10.0195 62.775 9.59766C63.1676 9.17578 63.6129 8.85645 64.1109 8.63965C64.609 8.42285 65.1246 8.31445 65.6578 8.31445C66.3375 8.31445 66.9234 8.43164 67.4156 8.66602C67.9137 8.90039 68.3209 9.22852 68.6373 9.65039C68.9537 10.0664 69.1881 10.5586 69.3404 11.127C69.4928 11.6895 69.5689 12.3047 69.5689 12.9727V13.7021H62.4674V12.375H67.943V12.252C67.9195 11.8301 67.8316 11.4199 67.6793 11.0215C67.5328 10.623 67.2984 10.2949 66.9762 10.0371C66.6539 9.7793 66.2145 9.65039 65.6578 9.65039C65.2887 9.65039 64.9488 9.72949 64.6383 9.8877C64.3277 10.04 64.0611 10.2686 63.8385 10.5732C63.6158 10.8779 63.443 11.25 63.3199 11.6895C63.1969 12.1289 63.1354 12.6357 63.1354 13.21V13.5791C63.1354 14.0303 63.1969 14.4551 63.3199 14.8535C63.4488 15.2461 63.6334 15.5918 63.8736 15.8906C64.1197 16.1895 64.4156 16.4238 64.7613 16.5938C65.1129 16.7637 65.5113 16.8486 65.9566 16.8486C66.5309 16.8486 67.0172 16.7314 67.4156 16.4971C67.8141 16.2627 68.1627 15.9492 68.4615 15.5566L69.4459 16.3389C69.2408 16.6494 68.9801 16.9453 68.6637 17.2266C68.3473 17.5078 67.9576 17.7363 67.4947 17.9121C67.0377 18.0879 66.4957 18.1758 65.8688 18.1758ZM73.9934 9.98438V18H72.3674V8.49023H73.9494L73.9934 9.98438ZM76.9641 8.4375L76.9553 9.94922C76.8205 9.91992 76.6916 9.90234 76.5686 9.89648C76.4514 9.88477 76.3166 9.87891 76.1643 9.87891C75.7893 9.87891 75.4582 9.9375 75.1711 10.0547C74.884 10.1719 74.6408 10.3359 74.4416 10.5469C74.2424 10.7578 74.0842 11.0098 73.967 11.3027C73.8557 11.5898 73.7824 11.9062 73.7473 12.252L73.2902 12.5156C73.2902 11.9414 73.3459 11.4023 73.4572 10.8984C73.5744 10.3945 73.7531 9.94922 73.9934 9.5625C74.2336 9.16992 74.5383 8.86523 74.9074 8.64844C75.2824 8.42578 75.7277 8.31445 76.2434 8.31445C76.3605 8.31445 76.4953 8.3291 76.6477 8.3584C76.8 8.38184 76.9055 8.4082 76.9641 8.4375ZM82.4168 16.5322L85.0184 8.49023H86.6795L83.2605 18H82.1707L82.4168 16.5322ZM80.2459 8.49023L82.9266 16.5762L83.1111 18H82.0213L78.576 8.49023H80.2459ZM90.9105 8.49023V18H89.2758V8.49023H90.9105ZM89.1527 5.96777C89.1527 5.7041 89.2318 5.48145 89.39 5.2998C89.5541 5.11816 89.7943 5.02734 90.1107 5.02734C90.4213 5.02734 90.6586 5.11816 90.8227 5.2998C90.9926 5.48145 91.0775 5.7041 91.0775 5.96777C91.0775 6.21973 90.9926 6.43652 90.8227 6.61816C90.6586 6.79395 90.4213 6.88184 90.1107 6.88184C89.7943 6.88184 89.5541 6.79395 89.39 6.61816C89.2318 6.43652 89.1527 6.21973 89.1527 5.96777ZM98.2266 16.8398C98.6133 16.8398 98.9707 16.7607 99.2988 16.6025C99.627 16.4443 99.8965 16.2275 100.107 15.9521C100.318 15.6709 100.438 15.3516 100.468 14.9941H102.015C101.985 15.5566 101.795 16.0811 101.443 16.5674C101.098 17.0479 100.644 17.4375 100.081 17.7363C99.5186 18.0293 98.9004 18.1758 98.2266 18.1758C97.5117 18.1758 96.8877 18.0498 96.3545 17.7979C95.8271 17.5459 95.3877 17.2002 95.0361 16.7607C94.6904 16.3213 94.4297 15.8174 94.2539 15.249C94.084 14.6748 93.999 14.0684 93.999 13.4297V13.0605C93.999 12.4219 94.084 11.8184 94.2539 11.25C94.4297 10.6758 94.6904 10.1689 95.0361 9.72949C95.3877 9.29004 95.8271 8.94434 96.3545 8.69238C96.8877 8.44043 97.5117 8.31445 98.2266 8.31445C98.9707 8.31445 99.6211 8.4668 100.178 8.77148C100.734 9.07031 101.171 9.48047 101.487 10.002C101.81 10.5176 101.985 11.1035 102.015 11.7598H100.468C100.438 11.3672 100.327 11.0127 100.134 10.6963C99.9463 10.3799 99.6885 10.1279 99.3604 9.94043C99.0381 9.74707 98.6602 9.65039 98.2266 9.65039C97.7285 9.65039 97.3096 9.75 96.9697 9.94922C96.6357 10.1426 96.3691 10.4062 96.1699 10.7402C95.9766 11.0684 95.8359 11.4346 95.748 11.8389C95.666 12.2373 95.625 12.6445 95.625 13.0605V13.4297C95.625 13.8457 95.666 14.2559 95.748 14.6602C95.8301 15.0645 95.9678 15.4307 96.1611 15.7588C96.3604 16.0869 96.627 16.3506 96.9609 16.5498C97.3008 16.7432 97.7227 16.8398 98.2266 16.8398ZM108.689 18.1758C108.027 18.1758 107.426 18.0645 106.887 17.8418C106.354 17.6133 105.894 17.2939 105.507 16.8838C105.127 16.4736 104.834 15.9873 104.629 15.4248C104.423 14.8623 104.321 14.2471 104.321 13.5791V13.21C104.321 12.4365 104.435 11.748 104.664 11.1445C104.892 10.5352 105.203 10.0195 105.595 9.59766C105.988 9.17578 106.433 8.85645 106.931 8.63965C107.429 8.42285 107.945 8.31445 108.478 8.31445C109.158 8.31445 109.744 8.43164 110.236 8.66602C110.734 8.90039 111.141 9.22852 111.458 9.65039C111.774 10.0664 112.008 10.5586 112.161 11.127C112.313 11.6895 112.389 12.3047 112.389 12.9727V13.7021H105.288V12.375H110.763V12.252C110.74 11.8301 110.652 11.4199 110.5 11.0215C110.353 10.623 110.119 10.2949 109.796 10.0371C109.474 9.7793 109.035 9.65039 108.478 9.65039C108.109 9.65039 107.769 9.72949 107.459 9.8877C107.148 10.04 106.881 10.2686 106.659 10.5732C106.436 10.8779 106.263 11.25 106.14 11.6895C106.017 12.1289 105.956 12.6357 105.956 13.21V13.5791C105.956 14.0303 106.017 14.4551 106.14 14.8535C106.269 15.2461 106.454 15.5918 106.694 15.8906C106.94 16.1895 107.236 16.4238 107.582 16.5938C107.933 16.7637 108.332 16.8486 108.777 16.8486C109.351 16.8486 109.838 16.7314 110.236 16.4971C110.634 16.2627 110.983 15.9492 111.282 15.5566L112.266 16.3389C112.061 16.6494 111.8 16.9453 111.484 17.2266C111.168 17.5078 110.778 17.7363 110.315 17.9121C109.858 18.0879 109.316 18.1758 108.689 18.1758ZM120.725 15.4775C120.725 15.2432 120.672 15.0264 120.567 14.8271C120.467 14.6221 120.259 14.4375 119.943 14.2734C119.632 14.1035 119.163 13.957 118.536 13.834C118.009 13.7227 117.531 13.5908 117.104 13.4385C116.682 13.2861 116.321 13.1016 116.023 12.8848C115.73 12.668 115.504 12.4131 115.346 12.1201C115.188 11.8271 115.109 11.4844 115.109 11.0918C115.109 10.7168 115.191 10.3623 115.355 10.0283C115.525 9.69434 115.762 9.39844 116.067 9.14062C116.377 8.88281 116.749 8.68066 117.183 8.53418C117.616 8.3877 118.1 8.31445 118.633 8.31445C119.395 8.31445 120.045 8.44922 120.584 8.71875C121.123 8.98828 121.536 9.34863 121.823 9.7998C122.111 10.2451 122.254 10.7402 122.254 11.2852H120.628C120.628 11.0215 120.549 10.7666 120.391 10.5205C120.238 10.2686 120.013 10.0605 119.714 9.89648C119.421 9.73242 119.061 9.65039 118.633 9.65039C118.182 9.65039 117.816 9.7207 117.534 9.86133C117.259 9.99609 117.057 10.1689 116.928 10.3799C116.805 10.5908 116.743 10.8135 116.743 11.0479C116.743 11.2236 116.773 11.3818 116.831 11.5225C116.896 11.6572 117.007 11.7832 117.165 11.9004C117.323 12.0117 117.546 12.1172 117.833 12.2168C118.12 12.3164 118.487 12.416 118.932 12.5156C119.711 12.6914 120.353 12.9023 120.857 13.1484C121.361 13.3945 121.736 13.6963 121.982 14.0537C122.228 14.4111 122.351 14.8447 122.351 15.3545C122.351 15.7705 122.263 16.1514 122.087 16.4971C121.917 16.8428 121.668 17.1416 121.34 17.3936C121.018 17.6396 120.631 17.833 120.18 17.9736C119.735 18.1084 119.234 18.1758 118.677 18.1758C117.839 18.1758 117.13 18.0264 116.55 17.7275C115.97 17.4287 115.53 17.042 115.232 16.5674C114.933 16.0928 114.783 15.5918 114.783 15.0645H116.418C116.442 15.5098 116.571 15.8643 116.805 16.1279C117.039 16.3857 117.326 16.5703 117.666 16.6816C118.006 16.7871 118.343 16.8398 118.677 16.8398C119.122 16.8398 119.494 16.7812 119.793 16.6641C120.098 16.5469 120.329 16.3857 120.488 16.1807C120.646 15.9756 120.725 15.7412 120.725 15.4775Z" fill="#FF9F0E"/>
<path d="M172.707 12.7071C173.098 12.3166 173.098 11.6834 172.707 11.2929L166.343 4.92893C165.953 4.53841 165.319 4.53841 164.929 4.92893C164.538 5.31946 164.538 5.95262 164.929 6.34315L170.586 12L164.929 17.6569C164.538 18.0474 164.538 18.6805 164.929 19.0711C165.319 19.4616 165.953 19.4616 166.343 19.0711L172.707 12.7071ZM132 13H172V11H132V13Z" fill="#FF9F0E"/>
</svg>
