<svg width="96" height="96" viewBox="0 0 96 96" fill="none" xmlns="http://www.w3.org/2000/svg">
<path d="M67.2448 57.3904C64.9996 56.9476 62.7787 58.4128 61.8405 60.9534C61.6586 61.4462 61.5349 61.9569 61.4637 62.4731C63.7808 61.0882 65.8061 59.4188 67.5545 57.4514L67.2448 57.3904Z" fill="#181817"/>
<path d="M69.3279 32.7792C73.5375 29.4196 74.7297 22.5108 71.9909 17.348C69.252 12.1852 63.6192 10.7235 59.4095 14.0831C55.1999 17.4427 54.0077 24.3515 56.7465 29.5143C59.4854 34.6771 65.1182 36.1389 69.3279 32.7792Z" fill="#181817"/>
<path d="M86.0195 35.595C82.0866 29.6218 76.7449 29.5534 73.7943 31.9899C70.8445 34.4249 71.06 40.6117 73.5235 44.7657C73.6355 44.9948 73.7543 45.2333 73.8707 45.4693C74.7196 42.3099 74.8393 40.0167 74.8405 39.985C74.927 37.3046 76.6996 35.2122 78.8769 35.2122C78.9274 35.2122 78.978 35.2132 79.0285 35.2157C81.2559 35.3159 83.0014 37.6199 82.9193 40.3524V40.3608L82.9169 40.405C82.8506 41.9351 82.4237 47.4353 79.7161 53.9717C79.4695 54.5716 79.1789 55.2291 78.8454 55.9252C79.4129 57.255 79.9587 58.6136 80.4563 59.9935L77.0085 59.3142C74.6764 63.1459 71.1089 67.4928 65.7959 70.8986L81.2102 86.5477C82.1529 87.5052 83.2945 87.9717 84.4296 87.9717C85.8829 87.9717 87.3252 87.2062 88.3249 85.7262C90.1036 83.0889 89.8041 79.1823 87.6543 77.0002L83.9477 73.2354L85.1467 73.4724C85.5182 73.5453 85.8857 73.5631 86.2467 73.5373C87.1174 73.5884 88.1414 73.2151 89.4006 72.6771C92.8989 71.1817 96.865 68.5454 95.8338 60.5116C93.7531 49.7195 91.3867 43.8475 86.0195 35.595Z" fill="#181817"/>
<path d="M78.9959 53.5215C81.9064 46.4957 82.0944 40.6807 82.1118 40.3152C82.1773 38.1257 80.7847 36.2862 78.9995 36.2064C77.2172 36.125 75.7195 37.8292 75.6495 40.0138L75.6491 40.0133C75.6439 40.2657 75.3742 45.0479 73.0122 50.437C70.6252 55.834 66.3337 61.8979 57.6461 65.4456C55.9499 66.1318 55.0282 68.3744 55.5889 70.4553C56.0372 72.1223 57.3017 73.1794 58.6595 73.1794C58.9954 73.1794 59.337 73.1145 59.6734 72.9786C70.2953 68.715 76.1128 60.5374 78.9959 53.5215Z" fill="#181817"/>
<path d="M36.4025 72.3881C37.8723 72.7302 39.6413 73.2954 40.109 73.9028C41.3682 75.5326 41.9835 78.8987 43.6162 79.1347C44.757 79.2993 45.1576 79.2691 46.5709 78.1505C47.9659 77.0438 46.6412 72.7351 46.3081 71.0796C45.8359 68.7304 46.9618 66.1501 46.9791 65.9924C46.9933 65.8615 47.9631 63.3671 50.7665 64.3141C51.7456 64.6473 51.1724 62.4275 49.6391 61.3183C47.8159 60.0014 46.4969 60.6152 45.1641 61.8974C42.5907 59.4818 38.5591 59.9533 36.2671 61.0054C35.9008 62.8365 35.7589 64.6081 35.7589 66.2379C35.7577 68.7155 36.0811 70.8639 36.4025 72.3881ZM42.9367 67.1765C43.5358 66.6752 44.3532 66.8651 44.7623 67.5999C45.1706 68.3352 45.0157 69.3383 44.4166 69.8385C43.8159 70.3398 42.9994 70.1504 42.5903 69.4151C42.1824 68.6803 42.3364 67.6772 42.9367 67.1765Z" fill="#181817"/>
<path d="M34.615 60.9494C34.0183 60.9598 33.4499 60.9385 32.9078 60.8869C32.7178 60.8289 32.5214 60.7927 32.3156 60.8056C32.3031 60.8066 32.2918 60.8116 32.2792 60.8125C24.033 59.6637 21.7883 52.0127 12.1543 59.9528C9.24453 58.9041 5.7753 56.6496 3.1477 51.8386C2.61652 50.8713 1.5473 50.6179 0.761039 51.2694C-0.02926 51.9195 -0.23785 53.2299 0.295349 54.1978C2.7948 58.7276 5.88363 61.3813 8.78207 62.9357C8.74811 63.0229 8.71254 63.1265 8.67697 63.2257C7.93397 64.5967 7.35226 66.4029 6.97388 68.8102C6.92093 69.1617 4.56175 87.6281 8.26706 87.6281C11.9724 87.6281 12.9899 73.6588 15.0588 71.8704C15.3502 71.9021 20.8468 78.9661 25.5417 78.0781C26.6416 77.8689 28.1309 77.0359 29.3719 76.1498L31.4028 86.1218C31.6308 87.2409 32.4462 88 33.3606 88C33.4604 88 33.5619 87.9911 33.6634 87.9722C34.6946 87.7823 35.4372 86.6687 35.3826 85.391L34.8555 72.9746C34.5005 71.318 34.1424 68.9758 34.1408 66.2378C34.1412 64.5922 34.2734 62.8063 34.615 60.9494Z" fill="#181817"/>
<path d="M52.6512 85.3369H52.141L51.0997 81.3793H39.4336L38.3922 85.3369H37.8812C37.4705 85.3369 37.1366 85.746 37.1366 86.2507C37.1366 86.755 37.4705 87.164 37.8812 87.164H52.6512C53.0619 87.164 53.3958 86.755 53.3958 86.2507C53.3958 85.746 53.0615 85.3369 52.6512 85.3369Z" fill="#181817"/>
</svg>
