<svg width="96" height="96" viewBox="0 0 96 96" fill="none" xmlns="http://www.w3.org/2000/svg">
<path d="M18.6928 76.7857L22.1538 65.1513L20.8953 61.7207C18.2208 61.2732 16.0183 59.9308 14.6024 58.1408L9.88269 73.8025L0.600655 89.4642C-0.657925 91.5524 0.128688 94.2372 2.3312 95.4305C4.53372 96.6238 7.36553 95.878 8.62411 93.7898L18.3781 77.6806C18.5354 77.3823 18.6928 77.084 18.6928 76.7857Z" fill="#181817"/>
<path d="M3.27133 44.2928C4.71939 45.0522 6.65014 44.4447 7.45462 42.9259L14.6949 28.9534L15.9821 28.0421L16.6257 24.2452C16.9475 22.2708 17.9128 20.4483 19.2 18.9296L10.5116 24.2452C10.0289 24.549 9.70716 25.0046 9.38537 25.4602L1.82327 40.1922C1.01879 41.7109 1.66237 43.5334 3.27133 44.2928Z" fill="#181817"/>
<path d="M31.0154 16.2254C35.9095 16.2254 39.8769 12.5932 39.8769 8.11268C39.8769 3.63217 35.9095 0 31.0154 0C26.1213 0 22.1538 3.63217 22.1538 8.11268C22.1538 12.5932 26.1213 16.2254 31.0154 16.2254Z" fill="#181817"/>
<path d="M86.9077 76.7716C86.9077 76.7716 87.0646 76.921 87.0646 77.0704C88.32 76.3233 88.7908 74.6798 88.7908 74.6798C93.4985 76.0245 94.4401 71.8409 94.4401 71.8409C95.0678 70.6456 91.9293 69.4503 91.9293 69.4503C91.7724 66.462 88.1631 65.5655 88.1631 65.5655C86.437 64.0713 86.9077 65.5655 86.9077 65.5655C85.1816 65.4161 84.0831 66.0137 84.0831 66.0137C81.2585 63.4737 79.5323 67.3585 79.5323 67.3585C79.0615 67.3585 78.7477 67.5079 78.2769 67.5079C81.1015 71.0938 84.0831 74.2315 86.9077 76.7716Z" fill="#181817"/>
<path d="M91.2856 86.3458C90.4707 85.5893 84.6034 82.2607 84.6034 82.2607C85.9072 81.6555 86.0702 79.0834 86.0702 78.1756C82.9735 75.4522 79.7139 71.9723 76.4542 68.0385C74.8244 68.3411 64.0676 72.5775 53.6367 68.1898C49.7251 66.5255 46.3025 68.9463 46.3025 68.9463C43.3688 72.1236 44.6727 77.2678 44.6727 77.2678L48.7472 73.1827C50.866 71.6697 51.6809 71.9723 52.1699 72.7288C52.4958 73.334 52.3329 74.0905 51.8439 74.6957C47.9323 78.4782 49.2362 82.412 49.2362 82.412L43.6948 86.951C41.576 89.0692 44.0208 90.7335 44.0208 90.7335C44.5097 89.0692 48.4213 86.4971 48.4213 86.4971C48.2583 88.464 49.2362 88.9179 49.2362 88.9179C52.0069 88.1614 51.355 85.5893 51.355 85.5893C55.7555 85.438 56.2444 83.6224 56.2444 83.6224C60.645 84.3789 62.7637 81.6555 62.7637 81.6555C63.9046 83.6224 73.8465 85.7406 73.8465 85.7406C74.4985 86.0432 78.2471 93.003 78.2471 93.003C79.062 93.1543 79.8769 94.2134 79.8769 94.2134C81.6697 95.2725 85.4183 94.0621 85.4183 94.0621C85.0923 92.7004 83.1365 92.7004 83.1365 92.7004C78.736 92.7004 79.3879 85.8919 79.3879 85.8919C79.5509 84.9841 82.9735 86.6484 82.9735 86.6484L90.4707 89.2205C94.2193 91.0361 95.8492 88.9179 95.8492 88.9179C96.99 87.2536 91.2856 86.3458 91.2856 86.3458Z" fill="#181817"/>
<path d="M54.6461 33.0415C58.3688 40.5747 66.2997 55.4934 76.4965 67.6056C76.9821 67.4579 77.6295 67.4579 78.2769 67.3102C78.1151 67.1625 77.9532 67.0148 77.7914 66.7194C67.5945 54.7549 59.6636 39.8362 56.1028 32.4507C55.4554 32.8938 54.808 33.0415 54.6461 33.0415Z" fill="#181817"/>
<path d="M55.4412 31.3007C57.0701 30.702 58.0475 29.0555 57.3959 27.5587C56.7443 26.0619 54.9525 25.1638 53.3236 25.7626L44.5273 28.6065C34.265 19.7753 33.7763 18.2785 29.704 17.6798C24.4914 16.9314 19.6045 20.3741 18.7901 25.1638L14.8806 50.3101C14.0661 55.0999 17.8127 59.5903 23.0253 60.3387C23.1882 60.3387 23.3511 60.3387 23.514 60.3387L27.7492 72.0138L19.1159 83.6888C17.6498 85.6347 18.1385 88.4786 20.419 89.8257C22.5366 91.1728 25.6316 90.7238 27.0977 88.6283L37.1971 75.157C38.0115 73.9596 38.3373 72.6125 37.8486 71.2654L32.4731 56.447C33.2876 55.3993 33.9392 54.0521 34.1021 52.705L37.6857 30.4026L41.7581 33.995C42.5726 34.7434 43.8757 35.0427 45.016 34.5937L55.4412 31.3007Z" fill="#181817"/>
</svg>
